<svg width="244" height="100" viewBox="0 0 244 100" fill="none" xmlns="http://www.w3.org/2000/svg">
<path d="M91.8896 16.5797C91.8896 17.7789 91.6904 18.9664 91.2958 20.1422C90.8974 21.3102 90.3466 22.3727 89.6396 23.3297C90.3466 24.2789 90.8974 25.3414 91.2958 26.5172C91.6904 27.6852 91.8896 28.8727 91.8896 30.0797C91.8896 31.6735 91.5849 33.1852 90.9833 34.611C90.3896 36.0406 89.5771 37.2906 88.5458 38.361C87.5224 39.4352 86.3271 40.2985 84.9521 40.9547C83.5771 41.6031 82.0927 41.9469 80.499 42.0016H62.7958V4.64221H80.499C82.0927 4.74768 83.5771 5.11096 84.9521 5.73596C86.3271 6.36096 87.5224 7.21252 88.5458 8.28284C89.5771 9.35706 90.3896 10.6071 90.9833 12.0328C91.5849 13.4625 91.8896 14.9781 91.8896 16.5797ZM73.2177 14.8453V18.2985H79.9677C80.374 18.2985 80.7646 18.111 81.1396 17.736C81.5146 17.361 81.7021 16.9782 81.7021 16.5797C81.7021 16.0289 81.5146 15.6032 81.1396 15.2985C80.7646 14.9977 80.374 14.8453 79.9677 14.8453H73.2177ZM79.9677 31.7985C80.374 31.7985 80.7646 31.65 81.1396 31.3453C81.5146 31.0446 81.7021 30.6227 81.7021 30.0797C81.7021 29.6735 81.5146 29.3102 81.1396 28.986C80.7646 28.6656 80.374 28.5016 79.9677 28.5016V28.3453H73.2177V31.7985H79.9677Z" fill="#AB3841"/>
<path d="M168.022 4.57971H178.897V41.9235H168.022L152.429 21.6735V41.9235H141.554V4.57971H152.429L168.022 25.6422V4.57971Z" fill="#AB3841"/>
<path d="M103.165 22.4336C103.165 22.5156 103.177 22.5938 103.184 22.6719H107.942C107.95 22.5938 107.962 22.5156 107.962 22.4336C107.962 21.1094 106.888 20.0312 105.563 20.0312C104.239 20.0312 103.165 21.1094 103.165 22.4336Z" fill="#AB3841"/>
<path d="M109.231 20.9531C109.333 20.3008 109.497 19.6719 109.723 19.0703C108.712 17.8164 107.188 17.0703 105.563 17.0703C102.606 17.0703 100.2 19.4766 100.2 22.4336C100.2 22.5117 100.216 22.5938 100.22 22.6719H101.622C101.618 22.5938 101.602 22.5156 101.602 22.4336C101.602 20.2461 103.38 18.4688 105.563 18.4688C107.223 18.4688 108.645 19.5 109.231 20.9531Z" fill="#AB3841"/>
<mask id="mask0_653_850" style="mask-type:luminance" maskUnits="userSpaceOnUse" x="118" y="0" width="16" height="14">
<path d="M118.063 0H133.063V13.8086H118.063V0Z" fill="white"/>
</mask>
<g mask="url(#mask0_653_850)">
<path d="M132.391 1.36721C132.391 1.00392 132.247 0.660174 131.985 0.402362C131.723 0.136737 131.395 -0.00388782 130.997 1.8184e-05C130.626 0.00783119 130.282 0.160174 130.028 0.433612L118.485 12.8047C118.575 12.8047 118.657 12.793 118.747 12.793C119.372 12.793 119.981 12.8555 120.571 12.9727L131.954 2.35939C132.231 2.10158 132.388 1.7383 132.388 1.36721H132.391Z" fill="#AB3841"/>
</g>
<path d="M116.341 22.4336C116.341 22.5156 116.352 22.5938 116.36 22.6719H121.13C121.138 22.5938 121.149 22.5156 121.149 22.4336C121.149 21.1094 120.071 20.0312 118.747 20.0312C117.423 20.0312 116.341 21.1094 116.341 22.4336Z" fill="#AB3841"/>
<path d="M111.11 16.5703C109.614 15.1602 107.63 14.3555 105.563 14.3555C101.11 14.3555 97.4852 17.9766 97.4852 22.4336C97.4852 22.5078 97.4969 22.5938 97.4969 22.6719H98.6453C98.6453 22.5938 98.6375 22.5117 98.6375 22.4336C98.6375 18.6133 101.743 15.5078 105.563 15.5078C107.415 15.5078 109.165 16.2617 110.45 17.5469C110.649 17.207 110.872 16.8828 111.11 16.5703Z" fill="#AB3841"/>
<path d="M124.091 22.6719C124.095 22.5938 124.11 22.5117 124.11 22.4336C124.11 19.4766 121.704 17.0703 118.747 17.0703C115.79 17.0703 113.384 19.4766 113.384 22.4336C113.384 22.5117 113.399 22.5938 113.403 22.6719H114.798C114.794 22.5938 114.778 22.5117 114.778 22.4336C114.778 20.2461 116.559 18.4688 118.747 18.4688C120.934 18.4688 122.708 20.2461 122.708 22.4336C122.708 22.5117 122.696 22.5938 122.688 22.6719H124.091Z" fill="#AB3841"/>
<path d="M135.013 22.6719C135.013 22.5938 135.032 22.5117 135.032 22.4336C135.032 19.4766 132.626 17.0703 129.669 17.0703C128.77 17.0703 127.911 17.293 127.141 17.707C127.372 18.1172 127.571 18.5469 127.743 18.9922C128.329 18.6641 128.985 18.4688 129.669 18.4688C131.852 18.4688 133.63 20.2461 133.63 22.4336C133.63 22.5117 133.614 22.5938 133.61 22.6719H135.013Z" fill="#AB3841"/>
<path d="M126.817 22.6719C126.821 22.5938 126.825 22.5117 126.825 22.4336C126.825 17.9766 123.2 14.3555 118.747 14.3555C114.294 14.3555 110.669 17.9766 110.669 22.4336C110.669 22.5078 110.68 22.5938 110.684 22.6719H111.833C111.829 22.5938 111.821 22.5117 111.821 22.4336C111.821 18.6133 114.927 15.5078 118.747 15.5078C122.563 15.5078 125.673 18.6133 125.673 22.4336C125.673 22.5117 125.665 22.5938 125.661 22.6719H126.817Z" fill="#AB3841"/>
<path d="M132.048 22.6719C132.056 22.5938 132.067 22.5156 132.067 22.4336C132.067 21.1094 130.989 20.0312 129.669 20.0312C129.13 20.0312 128.618 20.2187 128.2 20.543C128.321 21.1562 128.388 21.7852 128.388 22.4336C128.388 22.5117 128.384 22.5938 128.38 22.6719H132.048Z" fill="#AB3841"/>
<mask id="mask1_653_850" style="mask-type:luminance" maskUnits="userSpaceOnUse" x="125" y="13" width="13" height="10">
<path d="M125.063 13.8086H137.7V22.8086H125.063V13.8086Z" fill="white"/>
</mask>
<g mask="url(#mask1_653_850)">
<path d="M129.669 14.3555C128.165 14.3555 126.731 14.7656 125.473 15.5391C125.755 15.8125 126.02 16.1055 126.266 16.4141C127.298 15.8281 128.454 15.5078 129.669 15.5078C133.485 15.5078 136.591 18.6133 136.591 22.4336C136.591 22.5117 136.587 22.5938 136.583 22.6719H137.731C137.731 22.5938 137.743 22.5078 137.743 22.4336C137.743 17.9766 134.122 14.3555 129.665 14.3555H129.669Z" fill="#AB3841"/>
</g>
<mask id="mask2_653_850" style="mask-type:luminance" maskUnits="userSpaceOnUse" x="127" y="4" width="11" height="10">
<path d="M127.063 4.80859H137.7V13.8086H127.063V4.80859Z" fill="white"/>
</mask>
<g mask="url(#mask2_653_850)">
<path d="M130.692 12.8477L136.774 7.17187C137.052 6.91406 137.212 6.55468 137.212 6.17968C137.212 5.8164 137.067 5.47265 136.809 5.21484C136.548 4.95312 136.212 4.80859 135.825 4.8164C135.45 4.82422 135.102 4.98047 134.848 5.2539L127.602 13.0195C128.274 12.875 128.962 12.793 129.665 12.793C130.013 12.793 130.352 12.8125 130.688 12.8477H130.692Z" fill="#AB3841"/>
</g>
<mask id="mask3_653_850" style="mask-type:luminance" maskUnits="userSpaceOnUse" x="95" y="23" width="43" height="5">
<path d="M95.7 23.8086H137.7V27.8086H95.7V23.8086Z" fill="white"/>
</mask>
<g mask="url(#mask3_653_850)">
<path d="M135.731 24.2344C135.731 24.2344 135.723 24.2344 135.72 24.2344H132.68H132.677C132.673 24.2344 132.673 24.2344 132.669 24.2344H127.552H127.548C127.544 24.2344 127.536 24.2344 127.532 24.2344H124.813H124.809C124.805 24.2344 124.805 24.2344 124.802 24.2344H121.763C121.763 24.2344 121.759 24.2344 121.755 24.2344C121.755 24.2344 121.755 24.2344 121.751 24.2344H108.579C108.579 24.2344 108.575 24.2344 108.571 24.2344C108.571 24.2344 108.571 24.2344 108.567 24.2344H99.5125C99.5125 24.2344 99.5047 24.2344 99.5008 24.2344H99.4969H96.7781C96.7742 24.2344 96.7703 24.2344 96.7625 24.2344C96.7625 24.2344 96.7625 24.2344 96.7586 24.2344H95.7039C95.7508 25.3984 95.8953 26.5312 96.1297 27.6367H137.305C137.54 26.5312 137.688 25.3984 137.731 24.2344H135.735H135.731Z" fill="#AB3841"/>
</g>
<mask id="mask4_653_850" style="mask-type:luminance" maskUnits="userSpaceOnUse" x="96" y="28" width="42" height="16">
<path d="M96.0633 28.8086H137.063V43.5H96.0633V28.8086Z" fill="white"/>
</mask>
<g mask="url(#mask4_653_850)">
<path d="M115.981 43.7461H117.45C126.645 43.7461 134.43 37.6016 136.915 29.1992H96.5164C99.0008 37.6016 106.786 43.7461 115.981 43.7461Z" fill="#AB3841"/>
</g>
<path d="M31.2031 99.4423L29.7812 96.3642H12.2969L10.875 99.4423H0L17.1719 62.0986H26.4688L42.0781 99.4423H31.2031ZM16.7969 86.9892H25.4219L21.2969 77.6142L16.7969 86.9892Z" fill="#AB3841"/>
<path d="M64.6361 62.0204C66.4877 62.0204 68.2299 62.4111 69.8549 63.1923C71.4799 63.9658 72.89 65.0126 74.0892 66.3329C75.2845 67.6572 76.2338 69.2197 76.933 71.0204C77.64 72.8251 77.9955 74.7704 77.9955 76.8642C77.9955 78.9189 77.64 80.8447 76.933 82.6454C76.2338 84.4501 75.2845 86.0126 74.0892 87.3329C72.89 88.6572 71.4799 89.7079 69.8549 90.4892C68.2299 91.2626 66.4877 91.6454 64.6361 91.6454H60.8236V99.3642H49.9486V62.0204H64.6361ZM63.0736 82.4111C64.4681 82.4111 65.6517 81.8486 66.6205 80.7236C67.597 79.5986 68.0892 78.3134 68.0892 76.8642C68.0892 75.3134 67.597 73.9736 66.6205 72.8486C65.6517 71.7236 64.4681 71.1611 63.0736 71.1611H60.8236V82.4111H63.0736Z" fill="#AB3841"/>
<path d="M100.631 62.0204C102.482 62.0204 104.224 62.4111 105.849 63.1923C107.474 63.9658 108.884 65.0126 110.084 66.3329C111.279 67.6572 112.228 69.2197 112.927 71.0204C113.634 72.8251 113.99 74.7704 113.99 76.8642C113.99 78.9189 113.634 80.8447 112.927 82.6454C112.228 84.4501 111.279 86.0126 110.084 87.3329C108.884 88.6572 107.474 89.7079 105.849 90.4892C104.224 91.2626 102.482 91.6454 100.631 91.6454H96.8181V99.3642H85.9431V62.0204H100.631ZM99.0681 82.4111C100.463 82.4111 101.646 81.8486 102.615 80.7236C103.591 79.5986 104.084 78.3134 104.084 76.8642C104.084 75.3134 103.591 73.9736 102.615 72.8486C101.646 71.7236 100.463 71.1611 99.0681 71.1611H96.8181V82.4111H99.0681Z" fill="#AB3841"/>
<path d="M155.828 73.2704L152.75 72.9736L155.687 54.4423L158.609 54.9736L155.828 73.2704ZM131.609 88.4892V86.2392H148.562V75.2861H131.609V72.8954H151.328V62.0204H120.734V99.3642H154.109V88.4892H131.609Z" fill="#AB3841"/>
<path d="M190.181 62.2392V71.5361H180.806V99.5986H169.931V71.5361H160.556V62.2392H190.181Z" fill="#AB3841"/>
<path d="M206.598 99.4423H197.301V62.0204H206.598V99.4423ZM206.598 55.7861C206.598 57.0908 206.144 58.1923 205.238 59.0986C204.34 59.997 203.242 60.4423 201.941 60.4423C200.637 60.4423 199.539 59.997 198.644 59.0986C197.746 58.1923 197.301 57.0908 197.301 55.7861C197.301 54.497 197.746 53.3876 198.644 52.4579C199.539 51.5322 200.637 51.0673 201.941 51.0673C203.242 51.0673 204.34 51.5322 205.238 52.4579C206.144 53.3876 206.598 54.497 206.598 55.7861Z" fill="#AB3841"/>
<path d="M243.273 62.2392V71.5361H233.898V99.5986H223.023V71.5361H213.648V62.2392H243.273Z" fill="#AB3841"/>
</svg>
