<svg width="271" height="168" viewBox="0 0 271 168" fill="none" xmlns="http://www.w3.org/2000/svg">
<mask id="mask0_653_849" style="mask-type:luminance" maskUnits="userSpaceOnUse" x="0" y="0" width="271" height="168">
<path d="M0 0H270.547V167.766H0V0Z" fill="white"/>
</mask>
<g mask="url(#mask0_653_849)">
<mask id="mask1_653_849" style="mask-type:luminance" maskUnits="userSpaceOnUse" x="0" y="0" width="271" height="168">
<path d="M10.5 0H259.594C265.395 0 270.094 4.69922 270.094 10.5V157.266C270.094 163.066 265.395 167.766 259.594 167.766H10.5C4.69922 167.766 0 163.066 0 157.266V10.5C0 4.69922 4.69922 0 10.5 0Z" fill="white"/>
</mask>
<g mask="url(#mask1_653_849)">
<mask id="mask2_653_849" style="mask-type:luminance" maskUnits="userSpaceOnUse" x="-1" y="-1" width="272" height="170">
<path d="M270.547 -0.617188H-0.453125V168.383H270.547V-0.617188Z" fill="white"/>
</mask>
<g mask="url(#mask2_653_849)">
<mask id="mask3_653_849" style="mask-type:luminance" maskUnits="userSpaceOnUse" x="0" y="0" width="271" height="168">
<path d="M0 0H270.105V167.766H0V0Z" fill="white"/>
</mask>
<g mask="url(#mask3_653_849)">
<mask id="mask4_653_849" style="mask-type:luminance" maskUnits="userSpaceOnUse" x="0" y="0" width="271" height="168">
<path d="M10.5 0H259.594C265.395 0 270.094 4.69922 270.094 10.5V157.266C270.094 163.066 265.395 167.766 259.594 167.766H10.5C4.69922 167.766 0 163.066 0 157.266V10.5C0 4.69922 4.69922 0 10.5 0Z" fill="white"/>
</mask>
<g mask="url(#mask4_653_849)">
<path d="M0 0H270V167.766H0V0Z" fill="#AB3841"/>
</g>
</g>
</g>
</g>
</g>
<path d="M105.373 48.1539C105.373 49.3531 105.174 50.5406 104.779 51.7164C104.381 52.8844 103.83 53.9469 103.123 54.9039C103.83 55.8531 104.381 56.9156 104.779 58.0914C105.174 59.2594 105.373 60.4469 105.373 61.6539C105.373 63.2477 105.068 64.7594 104.467 66.1852C103.873 67.6149 103.061 68.8649 102.029 69.9352C101.006 71.0094 99.8107 71.8727 98.4357 72.5289C97.0607 73.1774 95.5763 73.5211 93.9825 73.5758H76.2794V36.2164H93.9825C95.5763 36.3219 97.0607 36.6852 98.4357 37.3102C99.8107 37.9352 101.006 38.7867 102.029 39.8571C103.061 40.9313 103.873 42.1813 104.467 43.6071C105.068 45.0367 105.373 46.5524 105.373 48.1539ZM86.7013 46.4196V49.8727H93.4513C93.8575 49.8727 94.2482 49.6852 94.6232 49.3102C94.9982 48.9352 95.1857 48.5524 95.1857 48.1539C95.1857 47.6031 94.9982 47.1774 94.6232 46.8727C94.2482 46.5719 93.8575 46.4196 93.4513 46.4196H86.7013ZM93.4513 63.3727C93.8575 63.3727 94.2482 63.2242 94.6232 62.9196C94.9982 62.6188 95.1857 62.1969 95.1857 61.6539C95.1857 61.2477 94.9982 60.8844 94.6232 60.5602C94.2482 60.2399 93.8575 60.0758 93.4513 60.0758V59.9196H86.7013V63.3727H93.4513Z" fill="white"/>
<path d="M181.506 36.1539H192.381V73.4977H181.506L165.912 53.2477V73.4977H155.037V36.1539H165.912L181.506 57.2164V36.1539Z" fill="white"/>
<path d="M116.648 54.0078C116.648 54.0898 116.66 54.168 116.668 54.2461H121.426C121.434 54.168 121.445 54.0898 121.445 54.0078C121.445 52.6836 120.371 51.6055 119.047 51.6055C117.723 51.6055 116.648 52.6836 116.648 54.0078Z" fill="white"/>
<path d="M122.715 52.5273C122.816 51.875 122.98 51.2461 123.207 50.6445C122.195 49.3906 120.672 48.6445 119.047 48.6445C116.09 48.6445 113.684 51.0508 113.684 54.0078C113.684 54.0859 113.699 54.168 113.703 54.2461H115.105C115.102 54.168 115.086 54.0898 115.086 54.0078C115.086 51.8203 116.863 50.043 119.047 50.043C120.707 50.043 122.129 51.0742 122.715 52.5273Z" fill="white"/>
<mask id="mask5_653_849" style="mask-type:luminance" maskUnits="userSpaceOnUse" x="131" y="31" width="16" height="15">
<path d="M131.547 31.5743H146.547V45.3829H131.547V31.5743Z" fill="white"/>
</mask>
<g mask="url(#mask5_653_849)">
<path d="M145.875 32.9414C145.875 32.5781 145.73 32.2344 145.469 31.9766C145.207 31.711 144.879 31.5703 144.48 31.5742C144.109 31.582 143.766 31.7344 143.512 32.0078L131.969 44.3789C132.059 44.3789 132.141 44.3672 132.23 44.3672C132.855 44.3672 133.465 44.4297 134.055 44.5469L145.438 33.9336C145.715 33.6758 145.871 33.3125 145.871 32.9414H145.875Z" fill="white"/>
</g>
<path d="M129.824 54.0078C129.824 54.0898 129.836 54.168 129.844 54.2461H134.613C134.621 54.168 134.633 54.0898 134.633 54.0078C134.633 52.6836 133.555 51.6055 132.23 51.6055C130.906 51.6055 129.824 52.6836 129.824 54.0078Z" fill="white"/>
<path d="M124.594 48.1446C123.098 46.7344 121.113 45.9297 119.047 45.9297C114.594 45.9297 110.969 49.5508 110.969 54.0079C110.969 54.0821 110.98 54.168 110.98 54.2462H112.129C112.129 54.168 112.121 54.086 112.121 54.0079C112.121 50.1876 115.227 47.0821 119.047 47.0821C120.898 47.0821 122.648 47.836 123.934 49.1212C124.133 48.7813 124.355 48.4571 124.594 48.1446Z" fill="white"/>
<path d="M137.574 54.2461C137.578 54.168 137.594 54.0859 137.594 54.0078C137.594 51.0508 135.188 48.6445 132.23 48.6445C129.273 48.6445 126.867 51.0508 126.867 54.0078C126.867 54.0859 126.883 54.168 126.887 54.2461H128.281C128.277 54.168 128.262 54.0859 128.262 54.0078C128.262 51.8203 130.043 50.043 132.23 50.043C134.418 50.043 136.191 51.8203 136.191 54.0078C136.191 54.0859 136.18 54.168 136.172 54.2461H137.574Z" fill="white"/>
<path d="M148.496 54.2461C148.496 54.168 148.516 54.0859 148.516 54.0078C148.516 51.0508 146.109 48.6445 143.152 48.6445C142.254 48.6445 141.395 48.8672 140.625 49.2812C140.855 49.6914 141.055 50.1211 141.227 50.5664C141.812 50.2383 142.469 50.043 143.152 50.043C145.336 50.043 147.113 51.8203 147.113 54.0078C147.113 54.0859 147.098 54.168 147.094 54.2461H148.496Z" fill="white"/>
<path d="M140.301 54.2462C140.305 54.168 140.309 54.086 140.309 54.0079C140.309 49.5508 136.684 45.9297 132.23 45.9297C127.777 45.9297 124.152 49.5508 124.152 54.0079C124.152 54.0821 124.164 54.168 124.168 54.2462H125.316C125.313 54.168 125.305 54.086 125.305 54.0079C125.305 50.1876 128.41 47.0821 132.23 47.0821C136.047 47.0821 139.156 50.1876 139.156 54.0079C139.156 54.086 139.148 54.168 139.145 54.2462H140.301Z" fill="white"/>
<path d="M145.531 54.2461C145.539 54.168 145.551 54.0898 145.551 54.0078C145.551 52.6836 144.473 51.6055 143.152 51.6055C142.613 51.6055 142.102 51.793 141.684 52.1172C141.805 52.7305 141.871 53.3594 141.871 54.0078C141.871 54.0859 141.867 54.168 141.863 54.2461H145.531Z" fill="white"/>
<mask id="mask6_653_849" style="mask-type:luminance" maskUnits="userSpaceOnUse" x="138" y="45" width="14" height="10">
<path d="M138.547 45.3828H151.184V54.3828H138.547V45.3828Z" fill="white"/>
</mask>
<g mask="url(#mask6_653_849)">
<path d="M143.152 45.9297C141.648 45.9297 140.215 46.3399 138.957 47.1133C139.238 47.3868 139.504 47.6797 139.75 47.9883C140.781 47.4024 141.937 47.0821 143.152 47.0821C146.969 47.0821 150.074 50.1876 150.074 54.0079C150.074 54.086 150.07 54.168 150.066 54.2462H151.215C151.215 54.168 151.227 54.0821 151.227 54.0079C151.227 49.5508 147.605 45.9297 143.148 45.9297H143.152Z" fill="white"/>
</g>
<mask id="mask7_653_849" style="mask-type:luminance" maskUnits="userSpaceOnUse" x="140" y="36" width="12" height="10">
<path d="M140.547 36.3828H151.184V45.3828H140.547V36.3828Z" fill="white"/>
</mask>
<g mask="url(#mask7_653_849)">
<path d="M144.176 44.4219L150.258 38.7461C150.535 38.4883 150.695 38.1289 150.695 37.7539C150.695 37.3906 150.551 37.0469 150.293 36.7891C150.031 36.5273 149.695 36.3828 149.309 36.3906C148.934 36.3984 148.586 36.5547 148.332 36.8281L141.086 44.5937C141.758 44.4492 142.445 44.3672 143.148 44.3672C143.496 44.3672 143.836 44.3867 144.172 44.4219H144.176Z" fill="white"/>
</g>
<mask id="mask8_653_849" style="mask-type:luminance" maskUnits="userSpaceOnUse" x="109" y="55" width="43" height="5">
<path d="M109.184 55.3828H151.184V59.3828H109.184V55.3828Z" fill="white"/>
</mask>
<g mask="url(#mask8_653_849)">
<path d="M149.215 55.8087C149.215 55.8087 149.207 55.8087 149.203 55.8087H146.164H146.16C146.156 55.8087 146.156 55.8087 146.152 55.8087H141.035H141.031C141.027 55.8087 141.02 55.8087 141.016 55.8087H138.297H138.293C138.289 55.8087 138.289 55.8087 138.285 55.8087H135.246C135.246 55.8087 135.242 55.8087 135.238 55.8087C135.238 55.8087 135.238 55.8087 135.234 55.8087H122.063C122.063 55.8087 122.059 55.8087 122.055 55.8087C122.055 55.8087 122.055 55.8087 122.051 55.8087H112.996C112.996 55.8087 112.988 55.8087 112.984 55.8087H112.98H110.262C110.258 55.8087 110.254 55.8087 110.246 55.8087C110.246 55.8087 110.246 55.8087 110.242 55.8087H109.188C109.234 56.9727 109.379 58.1055 109.613 59.211H150.789C151.023 58.1055 151.172 56.9727 151.215 55.8087H149.219H149.215Z" fill="white"/>
</g>
<mask id="mask9_653_849" style="mask-type:luminance" maskUnits="userSpaceOnUse" x="109" y="60" width="42" height="16">
<path d="M109.547 60.3828H150.547V75.0742H109.547V60.3828Z" fill="white"/>
</mask>
<g mask="url(#mask9_653_849)">
<path d="M129.465 75.3203H130.934C140.129 75.3203 147.914 69.1758 150.398 60.7734H110C112.484 69.1758 120.27 75.3203 129.465 75.3203Z" fill="white"/>
</g>
<path d="M44.6868 131.017L43.2649 127.938H25.7805L24.3586 131.017H13.4836L30.6555 93.6729H39.9524L55.5618 131.017H44.6868ZM30.2805 118.563H38.9055L34.7805 109.188L30.2805 118.563Z" fill="white"/>
<path d="M78.1198 93.5947C79.9713 93.5947 81.7135 93.9853 83.3385 94.7665C84.9635 95.54 86.3737 96.5869 87.5729 97.9072C88.7682 99.2314 89.7174 100.794 90.4166 102.595C91.1237 104.399 91.4791 106.345 91.4791 108.438C91.4791 110.493 91.1237 112.419 90.4166 114.22C89.7174 116.024 88.7682 117.587 87.5729 118.907C86.3737 120.231 84.9635 121.282 83.3385 122.063C81.7135 122.837 79.9713 123.22 78.1198 123.22H74.3073V130.938H63.4323V93.5947H78.1198ZM76.5573 113.985C77.9518 113.985 79.1354 113.423 80.1041 112.298C81.0807 111.173 81.5729 109.888 81.5729 108.438C81.5729 106.888 81.0807 105.548 80.1041 104.423C79.1354 103.298 77.9518 102.735 76.5573 102.735H74.3073V113.985H76.5573Z" fill="white"/>
<path d="M114.114 93.5947C115.966 93.5947 117.708 93.9853 119.333 94.7665C120.958 95.54 122.368 96.5869 123.567 97.9072C124.763 99.2314 125.712 100.794 126.411 102.595C127.118 104.399 127.474 106.345 127.474 108.438C127.474 110.493 127.118 112.419 126.411 114.22C125.712 116.024 124.763 117.587 123.567 118.907C122.368 120.231 120.958 121.282 119.333 122.063C117.708 122.837 115.966 123.22 114.114 123.22H110.302V130.938H99.4266V93.5947H114.114ZM112.552 113.985C113.946 113.985 115.13 113.423 116.099 112.298C117.075 111.173 117.567 109.888 117.567 108.438C117.567 106.888 117.075 105.548 116.099 104.423C115.13 103.298 113.946 102.735 112.552 102.735H110.302V113.985H112.552Z" fill="white"/>
<path d="M169.312 104.845L166.234 104.548L169.171 86.0165L172.093 86.5478L169.312 104.845ZM145.093 120.063V117.813H162.046V106.86H145.093V104.47H164.812V93.5947H134.218V130.938H167.593V120.063H145.093Z" fill="white"/>
<path d="M203.665 93.8135V103.11H194.29V131.173H183.415V103.11H174.04V93.8135H203.665Z" fill="white"/>
<path d="M220.081 131.017H210.784V93.5947H220.081V131.017ZM220.081 87.3603C220.081 88.665 219.628 89.7665 218.722 90.6728C217.823 91.5712 216.726 92.0165 215.425 92.0165C214.12 92.0165 213.023 91.5712 212.128 90.6728C211.23 89.7665 210.784 88.665 210.784 87.3603C210.784 86.0712 211.23 84.9619 212.128 84.0322C213.023 83.1064 214.12 82.6415 215.425 82.6415C216.726 82.6415 217.823 83.1064 218.722 84.0322C219.628 84.9619 220.081 86.0712 220.081 87.3603Z" fill="white"/>
<path d="M256.756 93.8135V103.11H247.381V131.173H236.506V103.11H227.131V93.8135H256.756Z" fill="white"/>
</svg>
