<svg width="319" height="68" viewBox="0 0 319 68" fill="none" xmlns="http://www.w3.org/2000/svg">
<mask id="mask0_653_556" style="mask-type:luminance" maskUnits="userSpaceOnUse" x="0" y="0" width="319" height="68">
<path d="M319 0H0V68H319V0Z" fill="white"/>
</mask>
<g mask="url(#mask0_653_556)">
<mask id="mask1_653_556" style="mask-type:luminance" maskUnits="userSpaceOnUse" x="0" y="0" width="319" height="68">
<path d="M0.28125 0.601562H319V67.8008H0.28125V0.601562Z" fill="white"/>
</mask>
<g mask="url(#mask1_653_556)">
<path d="M5.38672 0.855469H313.797C316.375 0.855469 318.465 2.94531 318.465 5.52734V62.9063C318.465 65.4844 316.375 67.5781 313.797 67.5781H5.38672C2.80469 67.5781 0.714844 65.4844 0.714844 62.9063V5.52734C0.714844 2.94531 2.80469 0.855469 5.38672 0.855469Z" fill="#AB3841"/>
</g>
<path d="M34.6997 29.2283C34.6997 30.1346 34.5474 31.0369 34.2466 31.9315C33.9419 32.8182 33.5278 33.619 32.9966 34.3377C33.5278 35.0565 33.9419 35.8611 34.2466 36.744C34.5474 37.6307 34.6997 38.5252 34.6997 39.4315C34.6997 40.6424 34.4692 41.7869 34.0122 42.869C33.563 43.9432 32.9497 44.8924 32.1685 45.7127C31.395 46.5252 30.4888 47.1776 29.4497 47.6658C28.4067 48.158 27.2817 48.4197 26.0747 48.4627H12.6841V20.1971H26.0747C27.2817 20.283 28.4067 20.5565 29.4497 21.0252C30.4888 21.494 31.395 22.1424 32.1685 22.9627C32.9497 23.7752 33.563 24.7244 34.0122 25.8065C34.4692 26.8807 34.6997 28.0213 34.6997 29.2283ZM20.5747 27.9158V30.5252H25.6841C25.9849 30.5252 26.2778 30.3846 26.5591 30.1033C26.8403 29.8221 26.981 29.533 26.981 29.2283C26.981 28.8143 26.8403 28.4901 26.5591 28.2596C26.2778 28.033 25.9849 27.9158 25.6841 27.9158H20.5747ZM25.6841 40.744C25.9849 40.744 26.2778 40.6307 26.5591 40.4002C26.8403 40.1736 26.981 39.8494 26.981 39.4315C26.981 39.1307 26.8403 38.8611 26.5591 38.619C26.2778 38.369 25.9849 38.244 25.6841 38.244V38.1346H20.5747V40.744H25.6841Z" fill="white"/>
<path d="M92.2894 20.1502H100.508V48.4002H92.2894L80.4926 33.0877V48.4002H72.2582V20.1502H80.4926L92.2894 36.0877V20.1502Z" fill="white"/>
<path d="M145.906 48.4002L144.827 46.0721H131.609L130.531 48.4002H122.296L135.296 20.1502H142.327L154.124 48.4002H145.906ZM135.015 38.9783H141.531L138.406 31.8846L135.015 38.9783Z" fill="white"/>
<path d="M171.205 20.0877C172.6 20.0877 173.912 20.3846 175.143 20.9783C176.37 21.5643 177.44 22.3533 178.346 23.3533C179.252 24.3533 179.971 25.5369 180.502 26.9002C181.034 28.2674 181.299 29.7401 181.299 31.3221C181.299 32.8768 181.034 34.3338 180.502 35.6971C179.971 37.0526 179.252 38.2361 178.346 39.244C177.44 40.244 176.37 41.0369 175.143 41.619C173.912 42.2049 172.6 42.494 171.205 42.494H168.299V48.3377H160.08V20.0877H171.205ZM170.002 35.5252C171.065 35.5252 171.963 35.0994 172.705 34.244C173.444 33.3924 173.815 32.4158 173.815 31.3221C173.815 30.158 173.444 29.1463 172.705 28.2908C171.963 27.4393 171.065 27.0096 170.002 27.0096H168.299V35.5252H170.002Z" fill="white"/>
<path d="M198.434 20.0877C199.829 20.0877 201.141 20.3846 202.372 20.9783C203.598 21.5643 204.668 22.3533 205.575 23.3533C206.481 24.3533 207.2 25.5369 207.731 26.9002C208.262 28.2674 208.528 29.7401 208.528 31.3221C208.528 32.8768 208.262 34.3338 207.731 35.6971C207.2 37.0526 206.481 38.2361 205.575 39.244C204.668 40.244 203.598 41.0369 202.372 41.619C201.141 42.2049 199.829 42.494 198.434 42.494H195.528V48.3377H187.309V20.0877H198.434ZM197.231 35.5252C198.293 35.5252 199.192 35.0994 199.934 34.244C200.672 33.3924 201.043 32.4158 201.043 31.3221C201.043 30.158 200.672 29.1463 199.934 28.2908C199.192 27.4393 198.293 27.0096 197.231 27.0096H195.528V35.5252H197.231Z" fill="white"/>
<path d="M240.178 28.6033L237.85 28.369L240.069 14.3533L242.288 14.7596L240.178 28.6033ZM221.85 40.119V38.4158H234.678V30.1346H221.85V28.3221H236.772V20.0877H213.632V48.3377H238.882V40.119H221.85Z" fill="white"/>
<path d="M266.168 20.2596V27.2908H259.074V48.5096H250.84V27.2908H243.746V20.2596H266.168Z" fill="white"/>
<path d="M278.579 48.4002H271.548V20.0877H278.579V48.4002ZM278.579 15.3846C278.579 16.3651 278.236 17.1971 277.548 17.8846C276.868 18.5643 276.04 18.9002 275.064 18.9002C274.083 18.9002 273.251 18.5643 272.564 17.8846C271.884 17.1971 271.548 16.3651 271.548 15.3846C271.548 14.3963 271.884 13.5526 272.564 12.8533C273.251 12.158 274.083 11.8065 275.064 11.8065C276.04 11.8065 276.868 12.158 277.548 12.8533C278.236 13.5526 278.579 14.3963 278.579 15.3846Z" fill="white"/>
<path d="M306.33 20.2596V27.2908H299.236V48.5096H291.002V27.2908H283.908V20.2596H306.33Z" fill="white"/>
<path d="M43.1094 31.8477C43.1094 31.9102 43.1172 31.9688 43.125 32.0313H46.7266C46.7305 31.9688 46.7422 31.9102 46.7422 31.8477C46.7422 30.8477 45.9258 30.0352 44.9258 30.0352C43.9258 30.0352 43.1094 30.8477 43.1094 31.8477Z" fill="white"/>
<path d="M47.6992 30.7266C47.7773 30.2344 47.9023 29.7617 48.0742 29.3047C47.3086 28.3555 46.1562 27.793 44.9258 27.793C42.6875 27.793 40.8672 29.6133 40.8672 31.8477C40.8672 31.9063 40.8789 31.9688 40.8828 32.0313H41.9453C41.9414 31.9688 41.9297 31.9102 41.9297 31.8477C41.9297 30.1953 43.2734 28.8516 44.9258 28.8516C46.1836 28.8516 47.2578 29.6289 47.6992 30.7266Z" fill="white"/>
<mask id="mask2_653_556" style="mask-type:luminance" maskUnits="userSpaceOnUse" x="54" y="14" width="12" height="11">
<path d="M54 14.8789H66V25H54V14.8789Z" fill="white"/>
</mask>
<g mask="url(#mask2_653_556)">
<path d="M65.2188 15.9141C65.2188 15.6367 65.1094 15.3789 64.9141 15.1836C64.7148 14.9805 64.4648 14.8789 64.168 14.8789C63.8828 14.8867 63.625 15 63.4336 15.207L54.7031 24.5664C54.7656 24.5625 54.832 24.5547 54.8984 24.5547C55.3711 24.5547 55.832 24.6055 56.2813 24.6914L64.8906 16.6641C65.0977 16.4688 65.2188 16.1953 65.2188 15.9141Z" fill="white"/>
</g>
<path d="M53.0781 31.8477C53.0781 31.9102 53.0859 31.9688 53.0938 32.0313H56.6992C56.707 31.9688 56.7148 31.9102 56.7148 31.8477C56.7148 30.8477 55.8984 30.0352 54.8984 30.0352C53.8984 30.0352 53.0781 30.8477 53.0781 31.8477Z" fill="white"/>
<path d="M49.1211 27.4141C47.9922 26.3477 46.4883 25.7383 44.9258 25.7383C41.5547 25.7383 38.8125 28.4805 38.8125 31.8477C38.8125 31.9063 38.8242 31.9727 38.8242 32.0312H39.6953C39.6914 31.9688 39.6875 31.9102 39.6875 31.8477C39.6875 28.9609 42.0352 26.6094 44.9258 26.6094C46.3281 26.6094 47.6484 27.1797 48.6211 28.1523C48.7734 27.8945 48.9414 27.6484 49.1211 27.4141Z" fill="white"/>
<path d="M58.9414 32.0313C58.9453 31.9688 58.957 31.9063 58.957 31.8477C58.957 29.6133 57.1367 27.793 54.8984 27.793C52.6602 27.793 50.8438 29.6133 50.8438 31.8477C50.8438 31.9063 50.8555 31.9688 50.8555 32.0313H51.9102C51.9063 31.9688 51.8945 31.9102 51.8945 31.8477C51.8945 30.1953 53.2422 28.8516 54.8984 28.8516C56.5547 28.8516 57.8945 30.1953 57.8945 31.8477C57.8945 31.9102 57.8867 31.9688 57.8828 32.0313H58.9414Z" fill="white"/>
<path d="M67.2031 32.0313C67.2031 31.9688 67.2148 31.9063 67.2148 31.8477C67.2148 29.6133 65.3984 27.793 63.1602 27.793C62.4805 27.793 61.832 27.9609 61.25 28.2734C61.4258 28.582 61.5742 28.9102 61.7031 29.2461C62.1484 29 62.6445 28.8516 63.1602 28.8516C64.8125 28.8516 66.1562 30.1953 66.1562 31.8477C66.1562 31.9102 66.1445 31.9688 66.1406 32.0313H67.2031Z" fill="white"/>
<path d="M61.0039 32.0312C61.0078 31.9688 61.0078 31.9063 61.0078 31.8477C61.0078 28.4805 58.2695 25.7383 54.8984 25.7383C51.5273 25.7383 48.7891 28.4805 48.7891 31.8477C48.7891 31.9063 48.7969 31.9727 48.7969 32.0312H49.668C49.6641 31.9688 49.6602 31.9102 49.6602 31.8477C49.6602 28.9609 52.0078 26.6094 54.8984 26.6094C57.7852 26.6094 60.1367 28.9609 60.1367 31.8477C60.1367 31.9063 60.1328 31.9688 60.1289 32.0312H61.0039Z" fill="white"/>
<path d="M64.9609 32.0312C64.9648 31.9688 64.9766 31.9102 64.9766 31.8477C64.9766 30.8477 64.1602 30.0312 63.1602 30.0312C62.7539 30.0312 62.3633 30.1758 62.0508 30.418C62.1406 30.8828 62.1914 31.3594 62.1914 31.8477C62.1914 31.9063 62.1875 31.9688 62.1875 32.0312H64.9609Z" fill="white"/>
<mask id="mask3_653_556" style="mask-type:luminance" maskUnits="userSpaceOnUse" x="59" y="25" width="11" height="8">
<path d="M59 25H69.2344V33H59V25Z" fill="white"/>
</mask>
<g mask="url(#mask3_653_556)">
<path d="M63.1602 25.7383C62.0234 25.7383 60.9414 26.0469 59.9844 26.6328C60.1992 26.8398 60.3984 27.0625 60.5859 27.2969C61.3672 26.8516 62.2422 26.6094 63.1602 26.6094C66.0469 26.6094 68.3984 28.9609 68.3984 31.8477C68.3984 31.9102 68.3945 31.9688 68.3906 32.0312H69.2578C69.2617 31.9727 69.2695 31.9063 69.2695 31.8477C69.2695 28.4805 66.5273 25.7383 63.1602 25.7383Z" fill="white"/>
</g>
<path d="M63.9336 24.5977L68.5352 20.3047C68.7461 20.1094 68.8672 19.836 68.8672 19.5547C68.8672 19.2813 68.7578 19.0196 68.5625 18.8242C68.3633 18.625 68.1094 18.5156 67.8203 18.5235C67.5352 18.5274 67.2734 18.6446 67.0781 18.8555L61.5977 24.7266C62.1055 24.6172 62.625 24.5547 63.1602 24.5547C63.4219 24.5547 63.6797 24.5703 63.9336 24.5977Z" fill="white"/>
<mask id="mask4_653_556" style="mask-type:luminance" maskUnits="userSpaceOnUse" x="37" y="33" width="33" height="3">
<path d="M37.4648 33H69.2344V36H37.4648V33Z" fill="white"/>
</mask>
<g mask="url(#mask4_653_556)">
<path d="M67.7461 33.2109C67.7461 33.2109 67.7422 33.2109 67.7383 33.2109H65.4375C65.4375 33.2109 65.4375 33.2109 65.4336 33.2109C65.4336 33.2109 65.4336 33.2109 65.4297 33.2109H61.5586C61.5586 33.2109 61.5586 33.2109 61.5547 33.2109C61.5508 33.2109 61.5469 33.2109 61.5469 33.2109H59.4883H59.4844C59.4844 33.2109 59.4805 33.2109 59.4766 33.2109H57.1797H57.1758C57.1719 33.2109 57.1719 33.2109 57.1719 33.2109H47.207H47.2031C47.1992 33.2109 47.1992 33.2109 47.1992 33.2109H40.3477C40.3477 33.2109 40.3437 33.2109 40.3398 33.2109H40.3359H38.2812C38.2773 33.2109 38.2734 33.2109 38.2695 33.2109C38.2695 33.2109 38.2695 33.2109 38.2656 33.2109H37.4688C37.5 34.0937 37.6133 34.9492 37.7891 35.7852H68.9375C69.1133 34.9492 69.2266 34.0898 69.2617 33.2109H67.75H67.7461Z" fill="white"/>
</g>
<mask id="mask5_653_556" style="mask-type:luminance" maskUnits="userSpaceOnUse" x="38" y="36" width="31" height="12">
<path d="M38 36H69V47.7852H38V36Z" fill="white"/>
</mask>
<g mask="url(#mask5_653_556)">
<path d="M52.8086 47.9727H53.918C60.875 47.9727 66.7617 43.3242 68.6406 36.9688H38.082C39.9609 43.3242 45.8516 47.9727 52.8086 47.9727Z" fill="white"/>
</g>
</g>
</svg>
