<svg width="365" height="70" viewBox="0 0 365 70" fill="none" xmlns="http://www.w3.org/2000/svg">
<mask id="mask0_653_4" style="mask-type:luminance" maskUnits="userSpaceOnUse" x="0" y="0" width="365" height="70">
<path d="M0 0H364.564V69.2807H0V0Z" fill="white"/>
</mask>
<g mask="url(#mask0_653_4)">
<mask id="mask1_653_4" style="mask-type:luminance" maskUnits="userSpaceOnUse" x="-2" y="-1" width="368" height="71">
<path d="M365.541 -0.231934H-1.11853V69.6081H365.541V-0.231934Z" fill="white"/>
</mask>
<g mask="url(#mask1_653_4)">
<path d="M29.4481 27.4367C29.4481 28.5416 29.2571 29.6374 28.8843 30.7287C28.5205 31.8199 28.0158 32.802 27.3747 33.675C28.0158 34.5617 28.5205 35.5484 28.8843 36.6396C29.2571 37.7218 29.4481 38.813 29.4481 39.9134C29.4481 41.3956 29.1662 42.7961 28.6115 44.1147C28.0658 45.4378 27.311 46.5973 26.3562 47.5885C25.4105 48.5842 24.301 49.3845 23.0279 49.9892C21.7639 50.5849 20.3953 50.9031 18.9175 50.9532H2.53058V16.3969H18.9175C20.3953 16.4969 21.7639 16.8334 23.0279 17.4154C24.301 17.9883 25.4105 18.7704 26.3562 19.7616C27.311 20.7574 28.0658 21.9168 28.6115 23.2354C29.1662 24.5586 29.4481 25.959 29.4481 27.4367ZM12.1881 25.8362V29.0372H18.4265C18.7902 29.0372 19.1449 28.8644 19.4995 28.5098C19.8496 28.1597 20.027 27.8005 20.027 27.4367C20.027 26.9275 19.8496 26.5364 19.4995 26.2545C19.1449 25.9772 18.7902 25.8362 18.4265 25.8362H12.1881ZM18.4265 41.5139C18.7902 41.5139 19.1449 41.3774 19.4995 41.0955C19.8496 40.8182 20.027 40.4226 20.027 39.9134C20.027 39.5496 19.8496 39.2177 19.4995 38.913C19.1449 38.6129 18.7902 38.4584 18.4265 38.4584V38.331H12.1881V41.5139H18.4265Z" fill="#AB3841"/>
<path d="M99.8896 16.3423H109.947V50.8804H99.8896L85.4669 32.1473V50.8804H75.4092V16.3423H85.4669L99.8896 35.8212V16.3423Z" fill="#AB3841"/>
<path d="M165.444 50.8804L164.135 48.0432H147.966L146.657 50.8804H136.599L152.477 16.3423H161.079L175.502 50.8804H165.444ZM152.131 39.3677H160.116L156.296 30.6923L152.131 39.3677Z" fill="#AB3841"/>
<path d="M196.39 16.2696C198.1 16.2696 199.705 16.6288 201.21 17.3427C202.71 18.0611 204.015 19.0295 205.12 20.2527C206.234 21.4803 207.112 22.9262 207.757 24.5995C208.412 26.2636 208.74 28.0642 208.74 30.0012C208.74 31.8927 208.412 33.675 207.757 35.3483C207.112 37.0124 206.234 38.4538 205.12 39.6769C204.015 40.9046 202.71 41.873 201.21 42.5869C199.705 43.3053 198.1 43.66 196.39 43.66H192.844V50.8077H182.786V16.2696H196.39ZM194.935 35.13C196.231 35.13 197.327 34.6162 198.227 33.5841C199.123 32.5429 199.573 31.347 199.573 30.0012C199.573 28.5734 199.123 27.3367 198.227 26.2909C197.327 25.2497 196.231 24.7268 194.935 24.7268H192.844V35.13H194.935Z" fill="#AB3841"/>
<path d="M229.689 16.2696C231.399 16.2696 233.004 16.6288 234.509 17.3427C236.009 18.0611 237.314 19.0295 238.419 20.2527C239.533 21.4803 240.411 22.9262 241.056 24.5995C241.711 26.2636 242.039 28.0642 242.039 30.0012C242.039 31.8927 241.711 33.675 241.056 35.3483C240.411 37.0124 239.533 38.4538 238.419 39.6769C237.314 40.9046 236.009 41.873 234.509 42.5869C233.004 43.3053 231.399 43.66 229.689 43.66H226.143V50.8077H216.085V16.2696H229.689ZM228.234 35.13C229.53 35.13 230.626 34.6162 231.526 33.5841C232.422 32.5429 232.872 31.347 232.872 30.0012C232.872 28.5734 232.422 27.3367 231.526 26.2909C230.626 25.2497 229.53 24.7268 228.234 24.7268H226.143V35.13H228.234Z" fill="#AB3841"/>
<path d="M280.739 26.6729L277.902 26.4001L280.612 9.26746L283.303 9.74033L280.739 26.6729ZM258.332 40.75V38.6766H274.01V28.5462H258.332V26.3273H276.574V16.2696H248.274V50.8077H279.157V40.75H258.332Z" fill="#AB3841"/>
<path d="M312.525 16.4697V25.0724H303.849V51.0259H293.791V25.0724H285.116V16.4697H312.525Z" fill="#AB3841"/>
<path d="M327.706 50.8804H319.103V16.2696H327.706V50.8804ZM327.706 10.5042C327.706 11.7045 327.288 12.723 326.451 13.5597C325.624 14.3963 324.614 14.8146 323.414 14.8146C322.213 14.8146 321.195 14.3963 320.358 13.5597C319.522 12.723 319.103 11.7045 319.103 10.5042C319.103 9.30379 319.522 8.28074 320.358 7.43047C321.195 6.57111 322.213 6.13916 323.414 6.13916C324.614 6.13916 325.624 6.57111 326.451 7.43047C327.288 8.28074 327.706 9.30379 327.706 10.5042Z" fill="#AB3841"/>
<path d="M361.64 16.4697V25.0724H352.965V51.0259H342.907V25.0724H334.232V16.4697H361.64Z" fill="#AB3841"/>
</g>
</g>
<path d="M39.7579 32.1191C39.7579 32.1919 39.767 32.2646 39.7761 32.3419H44.182C44.1865 32.2646 44.2002 32.1919 44.2002 32.1191C44.2002 30.8915 43.2044 29.8957 41.9767 29.8957C40.7536 29.8957 39.7579 30.8915 39.7579 32.1191Z" fill="#AB3841"/>
<path d="M45.3733 30.746C45.4642 30.1458 45.6188 29.5638 45.828 29.0045C44.8913 27.8451 43.4818 27.1539 41.9768 27.1539C39.2441 27.1539 37.0161 29.3819 37.0161 32.1191C37.0161 32.1873 37.0298 32.2646 37.0343 32.3419H38.3302C38.3256 32.2646 38.312 32.1919 38.312 32.1191C38.312 30.0958 39.9579 28.4498 41.9768 28.4498C43.5136 28.4498 44.8276 29.4046 45.3733 30.746Z" fill="#AB3841"/>
<mask id="mask2_653_4" style="mask-type:luminance" maskUnits="userSpaceOnUse" x="53" y="11" width="15" height="14">
<path d="M53.5895 11.3672H67.5575V24.2121H53.5895V11.3672Z" fill="white"/>
</mask>
<g mask="url(#mask2_653_4)">
<path d="M66.7982 12.6312C66.7982 12.2947 66.6663 11.9765 66.4253 11.7355C66.1798 11.4899 65.8752 11.3626 65.5069 11.3672C65.1658 11.3717 64.843 11.5127 64.6111 11.7673L53.9351 23.2118C54.0124 23.2072 54.0942 23.1982 54.176 23.1982C54.7535 23.1982 55.3173 23.2573 55.8629 23.3618L66.3935 13.5497C66.6481 13.3087 66.7936 12.9722 66.7936 12.6312H66.7982Z" fill="#AB3841"/>
</g>
<path d="M51.948 32.1191C51.948 32.1919 51.9571 32.2646 51.9662 32.3419H56.3767C56.3857 32.2646 56.3948 32.1919 56.3948 32.1191C56.3948 30.8915 55.3991 29.8957 54.176 29.8957C52.9483 29.8957 51.948 30.8915 51.948 32.1191Z" fill="#AB3841"/>
<path d="M47.1102 26.6947C45.7279 25.3897 43.891 24.644 41.9767 24.644C37.8573 24.644 34.5062 27.9951 34.5062 32.1191C34.5062 32.1873 34.5153 32.2692 34.5199 32.3419H35.5793C35.5793 32.2646 35.5702 32.1919 35.5702 32.1191C35.5702 28.5862 38.4438 25.7126 41.9767 25.7126C43.6909 25.7126 45.3096 26.4082 46.4963 27.5995C46.6828 27.2812 46.8874 26.9811 47.1102 26.6947Z" fill="#AB3841"/>
<path d="M59.1184 32.3374C59.123 32.2646 59.1366 32.1873 59.1366 32.1146C59.1366 29.3819 56.9086 27.1539 54.176 27.1539C51.4388 27.1539 49.2153 29.3819 49.2153 32.1146C49.2153 32.1873 49.229 32.2646 49.2335 32.3374H50.5203C50.5157 32.2646 50.5021 32.1919 50.5021 32.1146C50.5021 30.0958 52.1481 28.4498 54.176 28.4498C56.1993 28.4498 57.8408 30.0958 57.8408 32.1146C57.8408 32.1919 57.8271 32.2646 57.8226 32.3374H59.1184Z" fill="#AB3841"/>
<path d="M69.2216 32.3374C69.2216 32.2646 69.2398 32.1873 69.2398 32.1146C69.2398 29.3819 67.0118 27.1539 64.2792 27.1539C63.4471 27.1539 62.6514 27.3631 61.9421 27.745C62.1558 28.1224 62.3377 28.5225 62.4968 28.9363C63.0379 28.6317 63.6472 28.4498 64.2792 28.4498C66.298 28.4498 67.944 30.0958 67.944 32.1146C67.944 32.1919 67.9303 32.2646 67.9258 32.3374H69.2216Z" fill="#AB3841"/>
<path d="M61.642 32.3374C61.642 32.2646 61.6465 32.1873 61.6465 32.1146C61.6465 27.9951 58.2955 24.644 54.176 24.644C50.052 24.644 46.7009 27.9951 46.7009 32.1146C46.7009 32.1873 46.7146 32.2646 46.7146 32.3374H47.7785C47.774 32.2646 47.7694 32.1919 47.7694 32.1146C47.7694 28.5816 50.6431 25.708 54.176 25.708C57.7044 25.708 60.5825 28.5862 60.5825 32.1146C60.5825 32.1873 60.5734 32.2646 60.5734 32.3374H61.642Z" fill="#AB3841"/>
<path d="M66.4798 32.3374C66.4844 32.2646 66.498 32.1919 66.498 32.1146C66.498 30.8915 65.5022 29.8957 64.2791 29.8957C63.7835 29.8957 63.3061 30.0685 62.9196 30.3686C63.0333 30.9369 63.0924 31.5189 63.0924 32.1146C63.0924 32.1873 63.0879 32.2646 63.0879 32.3374H66.4798Z" fill="#AB3841"/>
<mask id="mask3_653_4" style="mask-type:luminance" maskUnits="userSpaceOnUse" x="59" y="24" width="13" height="9">
<path d="M59.4095 24.2121H71.7088V32.3601H59.4095V24.2121Z" fill="white"/>
</mask>
<g mask="url(#mask3_653_4)">
<path d="M64.2792 24.644C62.8878 24.644 61.5647 25.026 60.3961 25.7398C60.6598 25.9945 60.9008 26.2627 61.1327 26.5492C62.0876 26.0081 63.1561 25.708 64.2792 25.708C67.8075 25.708 70.6857 28.5862 70.6857 32.1146C70.6857 32.1919 70.6766 32.2646 70.6721 32.3374H71.736C71.7406 32.2692 71.7497 32.1873 71.7497 32.1146C71.7497 27.9951 68.3986 24.644 64.2746 24.644H64.2792Z" fill="#AB3841"/>
</g>
<mask id="mask4_653_4" style="mask-type:luminance" maskUnits="userSpaceOnUse" x="61" y="14" width="11" height="11">
<path d="M61.7375 14.9001H71.7088V24.2121H61.7375V14.9001Z" fill="white"/>
</mask>
<g mask="url(#mask4_653_4)">
<path d="M65.2249 23.2481L70.8539 18.001C71.1085 17.76 71.254 17.4281 71.254 17.0826C71.254 16.7461 71.1222 16.4278 70.8812 16.1868C70.6402 15.9458 70.331 15.814 69.9764 15.8231C69.6263 15.8276 69.308 15.9731 69.0715 16.2232L62.3694 23.4118C62.9878 23.2754 63.6244 23.1981 64.2746 23.1981C64.5974 23.1981 64.9111 23.2163 65.2249 23.2481Z" fill="#AB3841"/>
</g>
<mask id="mask5_653_4" style="mask-type:luminance" maskUnits="userSpaceOnUse" x="32" y="33" width="40" height="5">
<path d="M32.8511 33.5241H71.7087V37.0161H32.8511V33.5241Z" fill="white"/>
</mask>
<g mask="url(#mask5_653_4)">
<path d="M69.8855 33.7833C69.8855 33.7833 69.8809 33.7833 69.8764 33.7833H67.0664H67.0619C67.0573 33.7833 67.0573 33.7833 67.0573 33.7833H62.3195H62.3149C62.3104 33.7833 62.3058 33.7833 62.3013 33.7833H59.7869C59.7869 33.7833 59.7869 33.7833 59.7823 33.7833C59.7823 33.7833 59.7778 33.7833 59.7732 33.7833H56.9632H56.9587H56.9542H44.7685H44.764C44.7594 33.7833 44.7594 33.7833 44.7594 33.7833H36.3795C36.3795 33.7833 36.375 33.7833 36.3704 33.7833H36.3659H33.8515C33.8469 33.7833 33.8424 33.7833 33.8378 33.7833C33.8378 33.7833 33.8378 33.7833 33.8333 33.7833H32.8557C32.9012 34.8609 33.0376 35.9113 33.2513 36.9343H71.345C71.5587 35.9113 71.6951 34.8609 71.736 33.7833H69.8855Z" fill="#AB3841"/>
</g>
<mask id="mask6_653_4" style="mask-type:luminance" maskUnits="userSpaceOnUse" x="32" y="38" width="40" height="14">
<path d="M32.8511 38.1801H71.0494V51.607H32.8511V38.1801Z" fill="white"/>
</mask>
<g mask="url(#mask6_653_4)">
<path d="M51.6161 51.8344H52.9756C61.4828 51.8344 68.6851 46.1508 70.9812 38.3756H33.6105C35.9112 46.1508 43.1089 51.8344 51.6161 51.8344Z" fill="#AB3841"/>
</g>
</svg>
